<mxfile host="app.diagrams.net" modified="2025-03-16T14:30:00.000Z" agent="Mozilla/5.0 (Macintosh; Intel Mac OS X 10_15_7) AppleWebKit/537.36 (KHTML, like Gecko) Chrome/134.0.0.0 Safari/537.36" version="22.1.18" etag="LRHXDJpQPnS0AQs2ZZ0m" type="device">
  <diagram id="FYQOKUv9saEi2ekxj1eN" name="Phenom Earth Overview">
    <mxGraphModel dx="1200" dy="800" grid="1" gridSize="10" guides="1" tooltips="1" connect="1" arrows="1" fold="1" page="1" pageScale="1" pageWidth="827" pageHeight="1169" math="0" shadow="0">
      <root>
        <mxCell id="0" />
        <mxCell id="1" style="locked=1;" parent="0" />
        <mxCell id="background" value="" style="rounded=1;whiteSpace=wrap;html=1;strokeColor=#808080;fillColor=#000000;strokeWidth=4;" parent="1" vertex="1">
          <mxGeometry x="30" y="20" width="1020" height="720" as="geometry" />
        </mxCell>
        <mxCell id="chart-objects" parent="0" />
        <UserObject label="Phenom.Earth LLC" id="main">
          <mxCell style="rounded=1;whiteSpace=wrap;html=1;fillColor=#fad9d5;strokeColor=#ae4132;fontStyle=1;fontSize=24;strokeWidth=4;" parent="chart-objects" vertex="1">
            <mxGeometry x="440" y="100" width="200" height="80" as="geometry" />
          </mxCell>
        </UserObject>
        <UserObject label="Legal Structure" id="legal">
          <mxCell style="rounded=1;whiteSpace=wrap;html=1;fillColor=#b1ddf0;strokeColor=#10739e;fontSize=20;strokeWidth=4;" parent="chart-objects" vertex="1">
            <mxGeometry x="120" y="320" width="160" height="80" as="geometry" />
          </mxCell>
        </UserObject>
        <UserObject label="Infrastructure" id="infra">
          <mxCell style="rounded=1;whiteSpace=wrap;html=1;fillColor=#b1ddf0;strokeColor=#10739e;fontSize=20;strokeWidth=4;" parent="chart-objects" vertex="1">
            <mxGeometry x="320" y="320" width="160" height="80" as="geometry" />
          </mxCell>
        </UserObject>
        <UserObject label="Communications" id="comms">
          <mxCell style="rounded=1;whiteSpace=wrap;html=1;fillColor=#b1ddf0;strokeColor=#10739e;fontSize=20;strokeWidth=4;" parent="chart-objects" vertex="1">
            <mxGeometry x="520" y="320" width="160" height="80" as="geometry" />
          </mxCell>
        </UserObject>
        <UserObject label="Development" id="dev">
          <mxCell style="rounded=1;whiteSpace=wrap;html=1;fillColor=#b1ddf0;strokeColor=#10739e;fontSize=20;strokeWidth=4;" parent="chart-objects" vertex="1">
            <mxGeometry x="720" y="320" width="160" height="80" as="geometry" />
          </mxCell>
        </UserObject>
        <UserObject label="Finance" id="finance">
          <mxCell style="rounded=1;whiteSpace=wrap;html=1;fillColor=#b1ddf0;strokeColor=#10739e;fontSize=20;strokeWidth=4;" parent="chart-objects" vertex="1">
            <mxGeometry x="320" y="450" width="160" height="80" as="geometry" />
          </mxCell>
        </UserObject>
        <UserObject label="Product(s)" id="products">
          <mxCell style="rounded=1;whiteSpace=wrap;html=1;fillColor=#b1ddf0;strokeColor=#10739e;fontSize=20;strokeWidth=4;" parent="chart-objects" vertex="1">
            <mxGeometry x="120" y="450" width="160" height="80" as="geometry" />
          </mxCell>
        </UserObject>
        <UserObject label="Distribution" id="distrib">
          <mxCell style="rounded=1;whiteSpace=wrap;html=1;fillColor=#b1ddf0;strokeColor=#10739e;fontSize=20;strokeWidth=4;" parent="chart-objects" vertex="1">
            <mxGeometry x="520" y="450" width="160" height="80" as="geometry" />
          </mxCell>
        </UserObject>
        <mxCell id="main-to-legal" value="" style="edgeStyle=orthogonalEdgeStyle;rounded=0;orthogonalLoop=1;jettySize=auto;html=1;exitX=0.5;exitY=1;exitDx=0;exitDy=0;entryX=0.5;entryY=0;entryDx=0;entryDy=0;strokeColor=#CC0000;strokeWidth=4;" parent="chart-objects" source="main" target="legal" edge="1">
          <mxGeometry relative="1" as="geometry">
            <Array as="points">
              <mxPoint x="540" y="240" />
              <mxPoint x="200" y="240" />
            </Array>
          </mxGeometry>
        </mxCell>
        <mxCell id="main-to-infra" value="" style="edgeStyle=orthogonalEdgeStyle;rounded=0;orthogonalLoop=1;jettySize=auto;html=1;exitX=0.5;exitY=1;exitDx=0;exitDy=0;entryX=0.5;entryY=0;entryDx=0;entryDy=0;strokeColor=#CC0000;strokeWidth=4;" parent="chart-objects" source="main" target="infra" edge="1">
          <mxGeometry relative="1" as="geometry">
            <Array as="points">
              <mxPoint x="540" y="240" />
              <mxPoint x="400" y="240" />
            </Array>
          </mxGeometry>
        </mxCell>
        <mxCell id="main-to-comms" value="" style="edgeStyle=orthogonalEdgeStyle;rounded=0;orthogonalLoop=1;jettySize=auto;html=1;exitX=0.5;exitY=1;exitDx=0;exitDy=0;entryX=0.5;entryY=0;entryDx=0;entryDy=0;strokeColor=#CC0000;strokeWidth=4;" parent="chart-objects" source="main" target="comms" edge="1">
          <mxGeometry relative="1" as="geometry">
            <Array as="points">
              <mxPoint x="540" y="240" />
              <mxPoint x="600" y="240" />
            </Array>
          </mxGeometry>
        </mxCell>
        <mxCell id="main-to-dev" value="" style="edgeStyle=orthogonalEdgeStyle;rounded=0;orthogonalLoop=1;jettySize=auto;html=1;exitX=0.5;exitY=1;exitDx=0;exitDy=0;entryX=0.5;entryY=0;entryDx=0;entryDy=0;strokeColor=#CC0000;strokeWidth=4;" parent="chart-objects" source="main" target="dev" edge="1">
          <mxGeometry relative="1" as="geometry">
            <Array as="points">
              <mxPoint x="540" y="240" />
              <mxPoint x="800" y="240" />
            </Array>
          </mxGeometry>
        </mxCell>
        <mxCell id="main-to-finance" value="" style="edgeStyle=orthogonalEdgeStyle;rounded=0;orthogonalLoop=1;jettySize=auto;html=1;exitX=0.5;exitY=1;exitDx=0;exitDy=0;entryX=0.5;entryY=0;entryDx=0;entryDy=0;strokeColor=#CC0000;strokeWidth=4;" parent="chart-objects" source="main" target="finance" edge="1">
          <mxGeometry relative="1" as="geometry">
            <Array as="points">
              <mxPoint x="540" y="240" />
              <mxPoint x="400" y="240" />
              <mxPoint x="400" y="390" />
            </Array>
          </mxGeometry>
        </mxCell>
        <mxCell id="main-to-products" value="" style="edgeStyle=orthogonalEdgeStyle;rounded=0;orthogonalLoop=1;jettySize=auto;html=1;exitX=0.5;exitY=1;exitDx=0;exitDy=0;entryX=0.5;entryY=0;entryDx=0;entryDy=0;strokeColor=#CC0000;strokeWidth=4;" parent="chart-objects" source="main" target="products" edge="1">
          <mxGeometry relative="1" as="geometry">
            <Array as="points">
              <mxPoint x="540" y="240" />
              <mxPoint x="200" y="240" />
              <mxPoint x="200" y="410" />
            </Array>
          </mxGeometry>
        </mxCell>
        <mxCell id="main-to-distrib" value="" style="edgeStyle=orthogonalEdgeStyle;rounded=0;orthogonalLoop=1;jettySize=auto;html=1;exitX=0.5;exitY=1;exitDx=0;exitDy=0;entryX=0.5;entryY=0;entryDx=0;entryDy=0;strokeColor=#CC0000;strokeWidth=4;" parent="chart-objects" source="main" target="distrib" edge="1">
          <mxGeometry relative="1" as="geometry">
            <Array as="points">
              <mxPoint x="540" y="240" />
              <mxPoint x="600" y="240" />
              <mxPoint x="600" y="410" />
            </Array>
          </mxGeometry>
        </mxCell>
        <UserObject label="Personnel" id="personnel">
          <mxCell style="rounded=1;whiteSpace=wrap;html=1;fillColor=#b1ddf0;strokeColor=#10739e;fontSize=20;strokeWidth=4;" parent="chart-objects" vertex="1">
            <mxGeometry x="720" y="450" width="160" height="80" as="geometry" />
          </mxCell>
        </UserObject>
        <mxCell id="main-to-personnel" value="" style="edgeStyle=orthogonalEdgeStyle;rounded=0;orthogonalLoop=1;jettySize=auto;html=1;exitX=0.5;exitY=1;exitDx=0;exitDy=0;entryX=0.5;entryY=0;entryDx=0;entryDy=0;strokeColor=#CC0000;strokeWidth=4;" parent="chart-objects" source="main" target="personnel" edge="1">
          <mxGeometry relative="1" as="geometry">
            <Array as="points">
              <mxPoint x="540" y="240" />
              <mxPoint x="800" y="240" />
              <mxPoint x="800" y="410" />
            </Array>
          </mxGeometry>
        </mxCell>
        <UserObject label="Mobile App" id="mobile-app">
          <mxCell style="rounded=1;whiteSpace=wrap;html=1;fillColor=#d5e8d4;strokeColor=#82b366;fontSize=18;strokeWidth=4;" parent="chart-objects" vertex="1">
            <mxGeometry x="120" y="580" width="160" height="60" as="geometry" />
          </mxCell>
        </UserObject>
        <mxCell id="products-to-app" value="" style="edgeStyle=orthogonalEdgeStyle;rounded=0;orthogonalLoop=1;jettySize=auto;html=1;exitX=0.5;exitY=1;exitDx=0;exitDy=0;entryX=0.5;entryY=0;entryDx=0;entryDy=0;strokeColor=#CC0000;strokeWidth=4;" parent="chart-objects" source="products" target="mobile-app" edge="1">
          <mxGeometry relative="1" as="geometry" />
        </mxCell>
        <UserObject label="API Services" id="api">
          <mxCell style="rounded=1;whiteSpace=wrap;html=1;fillColor=#d5e8d4;strokeColor=#82b366;fontSize=18;strokeWidth=4;" parent="chart-objects" vertex="1">
            <mxGeometry x="320" y="580" width="160" height="60" as="geometry" />
          </mxCell>
        </UserObject>
        <mxCell id="finance-to-api" value="" style="edgeStyle=orthogonalEdgeStyle;rounded=0;orthogonalLoop=1;jettySize=auto;html=1;exitX=0.5;exitY=1;exitDx=0;exitDy=0;entryX=0.5;entryY=0;entryDx=0;entryDy=0;strokeColor=#CC0000;strokeWidth=4;" parent="chart-objects" source="finance" target="api" edge="1">
          <mxGeometry relative="1" as="geometry" />
        </mxCell>
        <UserObject label="App Stores" id="app-stores">
          <mxCell style="rounded=1;whiteSpace=wrap;html=1;fillColor=#d5e8d4;strokeColor=#82b366;fontSize=18;strokeWidth=4;" parent="chart-objects" vertex="1">
            <mxGeometry x="520" y="580" width="160" height="60" as="geometry" />
          </mxCell>
        </UserObject>
        <mxCell id="distrib-to-stores" value="" style="edgeStyle=orthogonalEdgeStyle;rounded=0;orthogonalLoop=1;jettySize=auto;html=1;exitX=0.5;exitY=1;exitDx=0;exitDy=0;entryX=0.5;entryY=0;entryDx=0;entryDy=0;strokeColor=#CC0000;strokeWidth=4;" parent="chart-objects" source="distrib" target="app-stores" edge="1">
          <mxGeometry relative="1" as="geometry" />
        </mxCell>
        <UserObject label="Team Collaboration" id="team">
          <mxCell style="rounded=1;whiteSpace=wrap;html=1;fillColor=#d5e8d4;strokeColor=#82b366;fontSize=18;strokeWidth=4;" parent="chart-objects" vertex="1">
            <mxGeometry x="720" y="580" width="160" height="60" as="geometry" />
          </mxCell>
        </UserObject>
        <mxCell id="personnel-to-team" value="" style="edgeStyle=orthogonalEdgeStyle;rounded=0;orthogonalLoop=1;jettySize=auto;html=1;exitX=0.5;exitY=1;exitDx=0;exitDy=0;entryX=0.5;entryY=0;entryDx=0;entryDy=0;strokeColor=#CC0000;strokeWidth=4;" parent="chart-objects" source="personnel" target="team" edge="1">
          <mxGeometry relative="1" as="geometry" />
        </mxCell>
        <mxCell id="title" value="Phenom Earth - Organizational Overview" style="text;html=1;strokeColor=none;fillColor=none;align=center;verticalAlign=middle;whiteSpace=wrap;rounded=0;fontSize=24;fontStyle=1;fontColor=#FFFFFF;" parent="chart-objects" vertex="1">
          <mxGeometry x="320" y="40" width="440" height="30" as="geometry" />
        </mxCell>
      </root>
    </mxGraphModel>
  </diagram>
</mxfile>